<?xml version="1.0" encoding="UTF-8"?>
<svg xmlns="http://www.w3.org/2000/svg" onmouseup="{ if(window.parent.document.onmouseup) window.parent.document.onmouseup(arguments[0]);}" xml:space="preserve" version="1.1" id="Layer_1_1_" viewBox="0 0 64 64" height="800px" width="800px" fill="#000000" xmlns:xlink="http://www.w3.org/1999/xlink"><g stroke-width="0" id="SVGRepo_bgCarrier"/><g stroke-linejoin="round" stroke-linecap="round" id="SVGRepo_tracerCarrier"/><g id="SVGRepo_iconCarrier"><g><rect data-cppathid="10000" y="5" x="5" width="2" height="2"/><rect data-cppathid="10001" y="5" x="9" width="2" height="2"/><rect data-cppathid="10002" y="5" x="13" width="2" height="2"/><path data-cppathid="10003" d="M63,15h-6V1H1v48h8v6h22v8h28v-8h4V15z M61,23H11v-6h50V23z M55,3v6H3V3H55z M3,47V11h52v4H9v32H3z M39,41h-8v8H15V31h24 V41z M57,61H33V43h24V61z M59,53V41H41V29H13v22h18v2H11V25h50v28H59z"/><rect data-cppathid="10004" y="19" x="13" width="2" height="2"/><rect data-cppathid="10005" y="19" x="17" width="2" height="2"/><rect data-cppathid="10006" y="19" x="21" width="2" height="2"/><rect data-cppathid="10007" y="33" x="17" width="20" height="2"/><rect data-cppathid="10008" y="37" x="17" width="20" height="2"/><rect data-cppathid="10009" y="41" x="17" width="12" height="2"/><rect data-cppathid="10010" y="45" x="17" width="12" height="2"/><rect data-cppathid="10011" y="45" x="35" width="20" height="2"/><rect data-cppathid="10012" y="49" x="35" width="20" height="2"/><rect data-cppathid="10013" y="53" x="35" width="20" height="2"/><rect data-cppathid="10014" y="57" x="53" width="2" height="2"/><rect data-cppathid="10015" y="57" x="35" width="16" height="2"/></g></g></svg>